<svg xmlns="http://www.w3.org/2000/svg" xmlns:xlink="http://www.w3.org/1999/xlink" width="1000" zoomAndPan="magnify" viewBox="0 0 750 749.999995" height="1000" preserveAspectRatio="xMidYMid meet" version="1.0"><defs><clipPath id="978f9ae0eb"><path d="M 1 8.4375 L 749 8.4375 L 749 741.9375 L 1 741.9375 Z M 1 8.4375 " clip-rule="nonzero"/></clipPath><clipPath id="3106e6294b"><path d="M 62.5 231 L 365 231 L 365 476 L 62.5 476 Z M 62.5 231 " clip-rule="nonzero"/></clipPath><clipPath id="1fe272edbb"><path d="M 385 231 L 687.25 231 L 687.25 476 L 385 476 Z M 385 231 " clip-rule="nonzero"/></clipPath><clipPath id="05d19e67df"><path d="M 304 443 L 446 443 L 446 674.515625 L 304 674.515625 Z M 304 443 " clip-rule="nonzero"/></clipPath><clipPath id="e168796674"><path d="M 51.015625 225 L 364 225 L 364 480 L 51.015625 480 Z M 51.015625 225 " clip-rule="nonzero"/></clipPath><clipPath id="43d7265896"><path d="M 301 445 L 449 445 L 449 685.535156 L 301 685.535156 Z M 301 445 " clip-rule="nonzero"/></clipPath></defs><g clip-path="url(#978f9ae0eb)"><path fill="#633058" d="M 636.28125 337.695312 C 636.464844 334.792969 636.371094 331.921875 635.96875 329.074219 C 638.035156 327.96875 640.101562 326.863281 642.167969 325.769531 L 645.65625 331.804688 C 642.539062 333.769531 639.410156 335.730469 636.28125 337.695312 Z M 628.414062 559.71875 L 624.992188 553.644531 L 632.929688 545.9375 L 636.390625 552 C 635.945312 552.25 628.855469 559.476562 628.414062 559.71875 Z M 287.6875 585.992188 C 283.699219 587.851562 279.71875 589.714844 275.734375 591.589844 L 272.429688 585.457031 C 274.636719 584.101562 276.8125 582.789062 278.960938 581.539062 C 286.648438 577.054688 294.359375 572.546875 302.074219 568.023438 C 302.867188 568.273438 303.667969 568.503906 304.488281 568.691406 C 310.800781 570.128906 316.808594 570.273438 322.699219 569.203125 C 311.054688 575.066406 299.265625 580.585938 287.6875 585.992188 Z M 273.285156 627.5625 L 269.40625 621.757812 C 269.988281 621.363281 275.347656 617.445312 275.824219 617.128906 L 279.832031 622.839844 C 279.410156 623.148438 274.003906 627.097656 273.285156 627.5625 Z M 156.917969 491.265625 C 160.089844 489.226562 163.246094 487.128906 166.402344 485.007812 C 166.378906 485.769531 166.375 486.535156 166.402344 487.304688 C 166.492188 489.351562 166.703125 491.339844 167.023438 493.28125 C 164.886719 494.585938 162.75 495.894531 160.613281 497.1875 Z M 82.851562 244.535156 L 78.976562 238.726562 L 80.566406 237.644531 C 82.945312 236.023438 84.824219 234.742188 86.203125 233.902344 L 90.015625 239.746094 C 87.585938 241.429688 85.023438 243.109375 82.851562 244.535156 Z M 73.421875 411.085938 L 69.691406 405.191406 C 70.664062 404.566406 76.339844 399.722656 76.917969 399.410156 L 80.417969 405.441406 C 79.710938 405.875 74.121094 410.65625 73.421875 411.085938 Z M 120.972656 148.59375 L 125.042969 154.265625 L 120.972656 148.597656 Z M 173.558594 72.359375 C 173.960938 72.816406 174.347656 73.3125 174.6875 73.828125 L 168.894531 77.714844 C 168.726562 77.460938 168.542969 77.226562 168.34375 77 Z M 454.746094 105.132812 C 449.613281 108.847656 444.414062 112.503906 439.171875 116.121094 C 437.140625 113.28125 434.816406 110.597656 432.21875 108.21875 C 438.457031 105.320312 444.816406 102.332031 451.152344 99.1875 Z M 489.15625 175.566406 C 490.515625 174.941406 491.898438 174.316406 493.328125 173.6875 L 496.800781 179.699219 C 489.863281 184.777344 482.644531 190 475.273438 195.144531 C 475.285156 191.042969 474.746094 186.847656 473.636719 182.925781 C 478.804688 180.4375 483.972656 177.972656 489.15625 175.566406 Z M 590.628906 240.03125 L 594.261719 245.988281 C 593.289062 246.601562 589.015625 250.222656 588.121094 250.75 L 584.5 244.78125 C 585.402344 244.214844 589.675781 240.597656 590.628906 240.03125 Z M 748.085938 461.851562 C 747.503906 460.828125 745.53125 460.679688 744.410156 460.679688 C 738.246094 460.679688 727.320312 464.933594 717.230469 471.265625 L 712.777344 465.980469 C 716.453125 461.890625 717.863281 457.277344 716.527344 453.652344 C 715.132812 449.839844 710.875 447.253906 704.53125 446.371094 L 695.5625 445.125 L 703.050781 440.03125 C 727.273438 423.542969 741.757812 409.296875 742.796875 400.933594 C 743.003906 399.25 742.625 397.914062 741.585938 396.75 C 740.539062 395.566406 738.667969 394.960938 736.039062 394.960938 C 734.339844 394.960938 732.328125 395.21875 730.078125 395.71875 L 719.089844 398.171875 L 726.773438 389.9375 C 732.949219 383.308594 737.632812 376.496094 741.027344 369.195312 C 738.035156 368.167969 734.800781 367.648438 731.375 367.648438 C 729.980469 367.648438 728.527344 367.734375 727.054688 367.898438 L 718.71875 368.855469 L 723.917969 362.273438 C 724.265625 361.832031 724.601562 361.390625 724.9375 360.945312 C 735.054688 347.34375 735.816406 339.949219 734.804688 337.9375 C 734.679688 337.6875 734.347656 337.019531 732.503906 337.019531 C 730.398438 337.019531 724.15625 338.023438 711.707031 347.359375 L 707.519531 341.773438 C 733.339844 322.410156 732.257812 316.449219 732.238281 316.398438 C 732.113281 316.199219 730.96875 315.460938 727.609375 315.460938 C 718.757812 315.460938 700.84375 320.804688 683.726562 331.015625 L 679.972656 325.136719 C 683.058594 323.035156 688.035156 320.199219 693.804688 316.910156 C 710.5 307.398438 738.4375 291.488281 740.386719 280.722656 C 741.28125 275.765625 740.898438 272.121094 739.277344 270.1875 C 738.078125 268.746094 735.953125 268.015625 732.960938 268.015625 C 725.226562 268.015625 714.589844 272.753906 707.832031 276.8125 L 703.847656 271.101562 C 720.554688 257.695312 719.871094 253.128906 719.894531 253.128906 C 719.742188 252.960938 718.78125 252.46875 716.488281 252.46875 C 710.363281 252.46875 700.699219 255.640625 691.25 260.75 C 667.839844 273.402344 644.441406 287.847656 621.492188 302.433594 C 619.839844 301.054688 618.0625 299.832031 616.152344 298.824219 C 614.496094 297.949219 612.714844 297.117188 610.851562 296.367188 C 611.234375 296.109375 611.617188 295.859375 612 295.601562 C 612.703125 295.128906 613.988281 294.285156 615.761719 293.125 C 624.925781 287.121094 649.273438 271.183594 669.753906 255.554688 C 700.878906 231.792969 702.714844 224.277344 702.691406 222.792969 C 702.550781 222.777344 702.359375 222.765625 702.105469 222.765625 C 700.476562 222.765625 697.109375 223.335938 690.3125 226.054688 L 686.9375 220.015625 C 699.335938 210.839844 708.097656 202.003906 713.746094 193.007812 C 716.140625 189.199219 718.378906 186.179688 720.179688 183.757812 C 721.179688 182.414062 722.273438 180.953125 722.929688 179.902344 C 721.746094 179.640625 719.5625 179.328125 715.523438 179.050781 C 714.984375 179.015625 714.445312 179 713.886719 179 C 702.964844 179 686.753906 185.550781 664.328125 199.042969 L 659.652344 194.078125 C 663.066406 189.09375 664.371094 184.992188 663.226562 182.816406 C 662.367188 181.1875 659.792969 180.257812 656.152344 180.257812 C 652.296875 180.257812 647.652344 181.332031 643.0625 183.269531 L 639.726562 177.179688 C 645.027344 173.535156 648.03125 168.601562 647.394531 164.609375 C 646.824219 161.128906 643.339844 158.28125 637.550781 156.601562 C 637.058594 156.457031 636.480469 156.382812 635.832031 156.378906 L 623.085938 156.3125 L 634.09375 149.878906 C 649.097656 141.109375 651.921875 135.027344 651.648438 131.472656 C 651.277344 126.640625 649.246094 125.644531 646.304688 125.644531 C 636.695312 125.644531 617.941406 138.003906 608.378906 145.785156 L 603.550781 140.78125 C 624.945312 116.335938 622.523438 110.15625 622.410156 109.902344 C 622.105469 109.234375 620.554688 109.003906 619.191406 109.003906 C 616.777344 109.003906 612.132812 109.667969 603.757812 112.847656 L 595.460938 115.996094 L 599.386719 108.042969 C 600.074219 106.65625 600.703125 105.230469 601.257812 103.808594 C 607.242188 88.464844 605.582031 83.429688 604.59375 81.972656 C 604.308594 81.5625 603.453125 80.308594 600.191406 80.308594 C 594.039062 80.308594 583.34375 84.742188 570.070312 92.800781 L 565.976562 87.179688 C 568.089844 85.359375 569.121094 83.636719 568.71875 82.578125 C 567.925781 80.453125 562.746094 78.148438 555.753906 78.148438 C 550.277344 78.148438 545.0625 79.523438 541.070312 82.023438 L 537.136719 76.269531 C 555.238281 62.71875 562.046875 52.238281 560.71875 48.238281 C 559.871094 45.691406 554.4375 44.164062 546.183594 44.164062 C 544.648438 44.164062 542.992188 44.214844 541.242188 44.316406 C 535.058594 44.667969 528.671875 46.597656 521.738281 50.207031 L 512.070312 55.246094 L 517.019531 45.527344 C 517.832031 43.929688 518.585938 42.296875 519.257812 40.644531 C 518.738281 40.625 518.21875 40.617188 517.695312 40.617188 C 505.53125 40.617188 492.789062 45.390625 477.601562 55.632812 L 473.652344 49.882812 C 490.535156 38.117188 506.246094 26.183594 513.21875 10.011719 C 509.550781 8.960938 505.511719 8.429688 501.164062 8.429688 C 483.511719 8.429688 460.648438 16.808594 431.253906 34.035156 L 427.011719 36.515625 L 426.066406 31.699219 C 425.574219 29.179688 424.421875 26.855469 419.449219 26.855469 C 411.046875 26.855469 396.054688 33.59375 377.253906 45.839844 L 372.992188 40.347656 C 381.265625 32.699219 387.261719 24.535156 390.183594 17.011719 C 388.300781 16.496094 386.484375 16.238281 384.675781 16.238281 C 378.289062 16.238281 372.054688 19.476562 364.164062 23.570312 L 363.972656 23.671875 C 343.9375 34.09375 324.074219 45.960938 304.863281 57.441406 C 295.867188 62.8125 286.566406 68.371094 277.378906 73.703125 L 273.804688 67.710938 L 275.617188 66.605469 C 342.144531 26.085938 345.300781 14.148438 344.683594 11.449219 C 344.453125 10.476562 342.328125 9.152344 337.0625 8.640625 C 336.226562 8.558594 335.347656 8.515625 334.449219 8.515625 C 310.558594 8.515625 271.984375 37.019531 240.980469 59.921875 C 224.316406 72.234375 209.9375 82.859375 198.960938 88.589844 L 195.304688 82.664062 C 196.394531 81.886719 198.25 80.625 200.664062 78.984375 C 241.441406 51.355469 261.628906 32.628906 260.691406 23.324219 C 260.617188 22.589844 260.421875 20.636719 256.363281 18.957031 C 254.957031 18.375 253.445312 18.09375 251.734375 18.09375 C 238.976562 18.09375 219.824219 34.039062 202.929688 48.113281 C 187.6875 60.8125 173.285156 72.8125 162.25 74.941406 C 161.53125 75.078125 160.847656 75.339844 160.207031 75.707031 C 158.699219 76.582031 157.617188 77.988281 157.160156 79.671875 C 156.710938 81.355469 156.945312 83.117188 157.824219 84.632812 C 158.371094 85.597656 159.195312 86.417969 160.179688 87.011719 L 164.570312 89.632812 L 160.527344 92.765625 C 156.84375 95.609375 152.042969 98.800781 146.472656 102.488281 C 131.40625 112.472656 110.773438 126.148438 106.195312 138.75 C 101.671875 151.214844 103.476562 154.753906 103.882812 155.335938 C 104.035156 155.554688 104.351562 156.003906 105.664062 156.003906 C 106.925781 156.003906 109.847656 155.535156 115.191406 152.398438 L 118.839844 158.351562 L 116.558594 159.808594 C 106.777344 166.046875 92 175.480469 79.699219 185.074219 C 60.40625 200.136719 59.902344 205.828125 60.203125 207.210938 C 60.539062 208.734375 63.496094 210.027344 68.214844 210.667969 L 78.246094 211.480469 L 69.871094 217.050781 C 35.089844 240.1875 34.949219 250.164062 36.5 253.386719 C 37.214844 254.859375 38.511719 256.554688 42.277344 256.554688 C 48 256.554688 56.9375 252.796875 68.84375 245.375 L 72.640625 251.230469 C 61.828125 258.5 51.226562 266.574219 45.914062 276.597656 C 48.324219 277.21875 50.847656 277.636719 53.464844 277.84375 L 62.503906 278.566406 L 55.3125 284.089844 C 36.542969 298.507812 23.757812 313.121094 16.328125 328.664062 C 18.46875 329.367188 20.625 329.707031 22.886719 329.707031 C 32.203125 329.707031 41.792969 323.726562 51.070312 317.953125 C 53.371094 316.519531 55.652344 315.101562 57.921875 313.769531 L 61.453125 319.789062 C 45.761719 328.992188 23.035156 347.019531 24.070312 356.476562 C 24.359375 359.054688 26.917969 361.144531 31.699219 362.6875 C 32.136719 362.824219 32.691406 362.898438 33.339844 362.898438 C 35.605469 362.898438 40.058594 362.015625 48.402344 357.800781 L 51.90625 363.824219 C 9.492188 391.976562 8.851562 401.894531 9.15625 403.597656 C 9.492188 405.480469 12.722656 406.535156 14.621094 406.980469 C 14.722656 407.011719 14.835938 407.03125 14.945312 407.050781 L 21.734375 408.300781 L 16.707031 413.027344 C 9.210938 420.082031 4.402344 426.644531 2.433594 432.535156 C 0.265625 439.039062 1.265625 440.90625 1.488281 441.21875 C 1.882812 441.769531 3.066406 441.84375 3.730469 441.84375 C 15.335938 441.84375 45.667969 421.390625 55.640625 414.671875 L 59.664062 420.371094 C 36.480469 437.472656 32.582031 448.753906 33.757812 452.328125 C 34.566406 454.800781 38.578125 455.167969 40.890625 455.167969 C 46.074219 455.167969 58.023438 453.351562 79.878906 441.226562 L 83.332031 447.289062 C 21.222656 483.496094 23.257812 492.382812 23.28125 492.46875 C 23.292969 492.480469 24.511719 494.175781 32.550781 494.175781 C 33.140625 494.175781 33.757812 494.171875 34.386719 494.152344 L 39.710938 494 L 37.714844 498.941406 C 29.066406 520.410156 30.375 525.015625 30.980469 525.914062 C 31.117188 526.125 31.671875 526.152344 32 526.152344 C 36.664062 526.152344 47.0625 520.328125 58.074219 514.167969 C 59.730469 513.242188 61.425781 512.289062 63.171875 511.324219 C 89.128906 496.902344 116.890625 480.636719 149.785156 460.566406 C 149.957031 460.796875 150.121094 461.03125 150.300781 461.257812 C 151.65625 463.015625 153.164062 464.710938 154.800781 466.308594 C 139.265625 476.976562 125.019531 487.285156 111.503906 497.640625 C 108.78125 499.722656 105.367188 502.195312 101.753906 504.816406 C 93.785156 510.585938 79.71875 520.785156 75.964844 525.644531 C 75.988281 525.644531 76.019531 525.648438 76.050781 525.648438 C 78.785156 525.644531 83.140625 524.933594 88.988281 523.519531 C 102.546875 520.25 117.230469 514.214844 133.890625 505.0625 L 137.347656 511.132812 C 127.328125 517.066406 117.394531 522.855469 107.832031 528.34375 C 103.273438 530.949219 98.40625 533.457031 93.691406 535.871094 C 80.976562 542.402344 67.882812 549.128906 58.792969 558.988281 C 59.375 559.011719 59.972656 559.03125 60.574219 559.03125 C 74.210938 559.03125 94.53125 551.144531 122.6875 534.933594 L 126.515625 540.757812 C 100.289062 560.308594 97.164062 569.941406 97.648438 573.945312 C 97.996094 576.800781 99.074219 579.449219 104.628906 579.449219 C 111.335938 579.449219 121.996094 575.578125 135.457031 568.253906 L 139.28125 574.066406 C 112.140625 595.300781 110.640625 603.761719 111.257812 606.414062 C 111.828125 608.902344 115.628906 610.210938 118.714844 610.867188 L 125.378906 612.289062 L 120.328125 616.863281 C 114.417969 622.222656 106.957031 630.496094 102.972656 640.785156 C 124.746094 640.082031 150.621094 621.457031 171.492188 606.429688 C 179.355469 600.777344 186.777344 595.429688 193.394531 591.40625 C 204.332031 584.753906 215.382812 578.101562 226.417969 571.492188 C 231.898438 572.132812 237.441406 571.800781 241.894531 570.28125 C 255.855469 565.507812 269.441406 559.957031 282.699219 553.777344 C 283.972656 555.402344 285.34375 556.964844 286.8125 558.429688 C 269.664062 569.847656 252.058594 581.527344 234.527344 592.777344 C 229.886719 595.753906 224.964844 598.539062 219.75 601.484375 C 204.933594 609.863281 189.671875 618.488281 181.398438 631.589844 C 186.632812 630.777344 192.097656 629.359375 197.957031 627.3125 L 201.167969 633.417969 C 179.566406 649.253906 176.6875 657.800781 176.890625 661.480469 C 176.933594 662.34375 177.074219 664.964844 181.578125 667.558594 C 182.875 668.300781 184.585938 668.679688 186.671875 668.679688 C 192.871094 668.679688 201.976562 665.449219 213.742188 659.097656 L 217.746094 664.75 C 208.035156 673.5625 207.605469 677.855469 207.871094 679.292969 C 208.164062 680.867188 209.832031 682.25 212.824219 683.417969 C 212.878906 683.4375 213.113281 683.511719 213.605469 683.511719 C 222.109375 683.511719 246.433594 666.453125 258.125 658.257812 C 261.902344 655.609375 264.875 653.515625 266.726562 652.363281 L 270.59375 658.171875 C 246.46875 675.261719 236.171875 691.507812 237.417969 695.425781 C 237.5 695.6875 238.371094 695.894531 239.433594 695.894531 C 242.902344 695.894531 251.808594 694.027344 272.453125 681.554688 L 276.476562 687.230469 C 275.777344 687.8125 274.738281 688.632812 273.453125 689.648438 C 264.667969 696.601562 237.902344 717.761719 237.613281 729.3125 C 237.578125 730.855469 238.082031 731.992188 239.242188 733.015625 C 239.761719 733.46875 240.601562 733.699219 241.734375 733.699219 C 251.847656 733.699219 273.910156 717.238281 284.5 709.332031 C 287.972656 706.738281 290.484375 704.867188 292.019531 703.917969 C 331.253906 679.5625 371.226562 655.6875 410.484375 632.699219 C 411.820312 637.25 414.238281 641.445312 417.5 644.863281 C 410.054688 649.007812 402.105469 653.046875 393.789062 657.222656 C 372.597656 667.871094 350.695312 678.875 336.3125 693.160156 C 331.515625 697.917969 326.910156 702.488281 324.535156 705.308594 C 328.121094 705.09375 334.023438 704.160156 341.832031 702.921875 L 342.273438 702.851562 C 347.113281 702.089844 352.261719 700.832031 357.542969 699.128906 L 360.921875 705.0625 C 351.492188 713.398438 344.761719 721.589844 340.925781 729.421875 C 337.4375 736.53125 336.3125 739.941406 335.976562 741.554688 C 338.292969 741.039062 342.375 739.316406 346.664062 737.511719 C 349.574219 736.28125 352.882812 734.882812 356.488281 733.480469 C 375.453125 726.128906 397.558594 714.574219 424.078125 698.148438 L 428.089844 703.847656 C 408.359375 719.492188 405.15625 727.265625 405.003906 730.507812 C 404.941406 731.8125 405.355469 732.8125 406.328125 733.742188 C 406.417969 733.832031 406.914062 734.0625 408.082031 734.0625 L 408.089844 734.0625 C 422.714844 734.058594 471.34375 702.824219 493.527344 688.28125 C 496.359375 688.75 499.210938 689.144531 502.0625 689.421875 L 502.828125 690.523438 C 493.617188 697.261719 488.066406 703.015625 486.242188 707.683594 C 506.34375 705.125 590.183594 670.976562 618.585938 644.976562 C 617.039062 643.875 615.730469 642.445312 614.746094 640.746094 L 620.785156 637.246094 C 621.4375 638.367188 622.394531 639.257812 623.550781 639.824219 C 625.1875 637.832031 626.417969 635.910156 627.167969 634.078125 C 628.585938 630.652344 628.121094 628.046875 625.679688 625.625 L 623.039062 623.003906 L 625.816406 620.535156 C 628.507812 618.148438 633.8125 614.792969 640.535156 610.554688 C 656.175781 600.671875 682.359375 584.140625 685 571.621094 C 685.476562 569.34375 685.125 567.421875 683.882812 565.566406 C 683.246094 564.621094 682.183594 563.542969 679.589844 563.542969 C 672.402344 563.542969 660.855469 571.269531 653.21875 576.382812 C 650.28125 578.351562 647.742188 580.050781 645.886719 581.027344 L 642.125 575.183594 C 645.085938 572.890625 650.601562 569.144531 657.582031 564.394531 C 668.726562 556.820312 683.984375 546.445312 695.953125 537.050781 C 713.796875 523.035156 715.234375 518.289062 715.316406 517.324219 C 714.953125 517.105469 713.660156 516.511719 710.011719 516.511719 C 708.847656 516.511719 707.523438 516.574219 706.082031 516.695312 L 703.953125 510.257812 C 724.683594 497.351562 737.789062 486.394531 742.90625 477.679688 C 749.769531 465.988281 748.425781 462.441406 748.085938 461.851562 " fill-opacity="1" fill-rule="nonzero"/></g><path fill="#fff163" d="M 374.992188 378.996094 C 391.96875 331.558594 440.539062 276.519531 484.875 245.960938 C 485.355469 240.089844 485.601562 234.398438 485.601562 228.96875 C 485.601562 151.203125 374.992188 75.441406 374.992188 75.441406 C 374.992188 75.441406 264.394531 151.203125 264.394531 228.96875 C 264.394531 234.398438 264.640625 240.089844 265.113281 245.960938 C 309.449219 276.519531 358.027344 331.558594 374.992188 378.996094 " fill-opacity="1" fill-rule="nonzero"/><path fill="#fff163" d="M 328.214844 475.257812 C 286.074219 485.742188 223.867188 476.570312 174.644531 458.578125 C 124.929688 494.691406 117.101562 596.035156 117.101562 596.035156 C 117.101562 596.035156 216.230469 643.503906 271.449219 611.625 C 280.957031 606.136719 290.953125 598.980469 300.855469 590.660156 C 299.628906 585.851562 298.945312 580.992188 298.945312 576.109375 C 298.945312 546.066406 310.476562 503.96875 328.214844 475.257812 " fill-opacity="1" fill-rule="nonzero"/><path fill="#fff163" d="M 579.859375 456.890625 C 529.96875 475.984375 465.226562 486.054688 421.78125 475.257812 C 439.519531 503.96875 451.050781 546.066406 451.050781 576.109375 C 451.050781 579.289062 450.765625 582.457031 450.226562 585.601562 C 462.015625 596.078125 474.097656 605.054688 485.480469 611.625 C 540.699219 643.503906 639.828125 596.035156 639.828125 596.035156 C 639.828125 596.035156 631.742188 491.414062 579.859375 456.890625 " fill-opacity="1" fill-rule="nonzero"/><path fill="#fff163" d="M 366.132812 436.84375 C 365.496094 435.191406 364.960938 433.488281 364.472656 431.757812 C 359.953125 415.632812 362.03125 396.386719 368.78125 375.933594 C 368.023438 373.640625 367.179688 371.324219 366.3125 369 C 342.953125 370.382812 324.414062 391.351562 324.414062 417.019531 C 324.414062 431.222656 330.082031 443.980469 339.109375 452.78125 C 344.0625 447.355469 349.273438 443.078125 354.691406 440.3125 C 358.425781 438.414062 362.246094 437.21875 366.132812 436.84375 " fill-opacity="1" fill-rule="nonzero"/><path fill="#fff163" d="M 425.808594 417.019531 C 425.808594 391.351562 407.253906 370.382812 383.898438 369 C 383.019531 371.324219 382.191406 373.640625 381.4375 375.933594 C 388.90625 398.582031 390.671875 419.746094 384.074219 436.84375 C 385.453125 436.976562 393.113281 439.082031 395.519531 440.3125 C 400.941406 443.078125 406.148438 447.355469 411.109375 452.78125 C 420.121094 443.980469 425.808594 431.222656 425.808594 417.019531 " fill-opacity="1" fill-rule="nonzero"/><g clip-path="url(#3106e6294b)"><path fill="#fff163" d="M 319.871094 416.550781 C 319.871094 389.871094 338.832031 367.613281 364.019531 362.527344 C 341.925781 321.625 302.0625 279.171875 265.113281 253.703125 C 260.265625 250.363281 255.460938 247.300781 250.757812 244.585938 C 183.410156 205.699219 62.5 263.601562 62.5 263.601562 C 62.5 263.601562 72.800781 397.273438 140.15625 436.152344 C 151.640625 442.785156 165.148438 448.917969 179.8125 454.269531 C 229.039062 472.257812 291.238281 481.429688 333.375 470.953125 C 335.816406 467.011719 338.371094 463.335938 341.035156 459.960938 C 328.152344 449.875 319.871094 434.1875 319.871094 416.550781 " fill-opacity="1" fill-rule="nonzero"/></g><g clip-path="url(#1fe272edbb)"><path fill="#fff163" d="M 499.230469 244.585938 C 494.535156 247.300781 489.730469 250.363281 484.875 253.703125 C 447.933594 279.171875 408.070312 321.625 385.976562 362.527344 C 411.164062 367.613281 430.125 389.871094 430.125 416.550781 C 430.125 434.1875 421.84375 449.875 408.960938 459.960938 C 411.625 463.335938 414.179688 467.011719 416.621094 470.960938 C 460.0625 481.757812 524.808594 471.679688 574.695312 452.585938 C 587.609375 447.640625 599.542969 442.097656 609.839844 436.152344 C 677.1875 397.273438 687.496094 263.609375 687.496094 263.609375 C 687.496094 263.609375 566.585938 205.699219 499.230469 244.585938 " fill-opacity="1" fill-rule="nonzero"/></g><g clip-path="url(#05d19e67df)"><path fill="#fff163" d="M 416.621094 475.257812 C 411.605469 467.152344 406.101562 460.128906 400.226562 454.730469 C 396.335938 451.15625 392.289062 448.296875 388.113281 446.332031 C 385.871094 445.277344 383.597656 444.476562 381.289062 443.957031 C 380.019531 443.671875 378.742188 443.46875 377.460938 443.351562 C 376.65625 443.28125 375.855469 443.234375 375.039062 443.234375 C 375.027344 443.234375 375.019531 443.226562 374.996094 443.226562 C 374.175781 443.226562 373.359375 443.28125 372.535156 443.351562 C 368.914062 443.671875 365.351562 444.699219 361.882812 446.332031 C 357.707031 448.296875 353.660156 451.15625 349.773438 454.730469 C 343.894531 460.128906 338.382812 467.152344 333.375 475.257812 C 315.644531 503.96875 304.105469 546.066406 304.105469 576.109375 C 304.105469 580.992188 304.789062 585.851562 306.019531 590.660156 C 317.3125 634.996094 374.996094 674.515625 374.996094 674.515625 C 374.996094 674.515625 437.148438 631.945312 445.058594 585.601562 C 445.597656 582.457031 445.890625 579.289062 445.890625 576.109375 C 445.890625 546.066406 434.351562 503.96875 416.621094 475.257812 " fill-opacity="1" fill-rule="nonzero"/></g><path fill="#fb92ff" d="M 471.65625 233.414062 C 432.792969 260.191406 390.210938 308.433594 375.34375 350.015625 C 360.46875 308.433594 317.894531 260.191406 279.03125 233.414062 C 278.621094 228.261719 278.402344 223.28125 278.402344 218.523438 C 278.402344 150.355469 375.34375 89.578125 375.34375 89.578125 C 375.34375 89.578125 472.285156 150.355469 472.285156 218.523438 C 472.285156 223.28125 472.070312 228.261719 471.65625 233.414062 Z M 374.996094 64.441406 C 374.996094 64.441406 260.332031 142.988281 260.332031 223.613281 C 260.332031 229.238281 260.589844 235.140625 261.074219 241.230469 C 307.046875 272.910156 357.402344 329.96875 374.996094 379.160156 C 392.585938 329.96875 442.945312 272.910156 488.917969 241.230469 C 489.402344 235.140625 489.664062 229.238281 489.664062 223.613281 C 489.664062 142.988281 374.996094 64.441406 374.996094 64.441406 " fill-opacity="1" fill-rule="nonzero"/><path fill="#fb92ff" d="M 502.082031 607.085938 C 492.859375 601.761719 479.707031 594.492188 470.160156 586.011719 C 470.59375 583.457031 470.824219 580.890625 470.824219 578.324219 C 470.824219 553.996094 460.359375 517.65625 446 494.414062 C 481.171875 503.15625 538.101562 491.621094 578.5 476.160156 C 620.515625 504.117188 633.808594 596.707031 633.808594 596.707031 C 633.808594 596.707031 546.789062 632.894531 502.082031 607.085938 Z M 587.386719 459.910156 C 535.664062 479.703125 468.539062 490.152344 423.5 478.953125 C 441.890625 508.71875 453.84375 552.363281 453.84375 583.507812 C 453.84375 586.800781 453.539062 590.089844 452.992188 593.351562 C 465.214844 604.214844 477.738281 613.519531 489.539062 620.332031 C 546.789062 653.382812 649.550781 604.164062 649.550781 604.164062 C 649.550781 604.164062 641.175781 495.699219 587.386719 459.910156 " fill-opacity="1" fill-rule="nonzero"/><path fill="#fb92ff" d="M 116.1875 596.707031 C 116.1875 596.707031 129.480469 504.117188 171.488281 476.160156 C 211.890625 491.621094 268.8125 503.15625 303.988281 494.414062 C 289.625 517.65625 279.160156 553.996094 279.160156 578.324219 C 279.160156 580.890625 279.402344 583.457031 279.835938 586.011719 C 270.289062 594.492188 257.125 601.761719 247.914062 607.085938 C 203.199219 632.894531 116.1875 596.707031 116.1875 596.707031 Z M 100.4375 604.164062 C 100.4375 604.164062 203.207031 653.382812 260.445312 620.332031 C 272.253906 613.519531 284.78125 604.214844 297.003906 593.351562 C 296.445312 590.089844 296.140625 586.800781 296.140625 583.507812 C 296.140625 552.363281 308.101562 508.71875 326.488281 478.953125 C 281.453125 490.152344 214.328125 479.703125 162.609375 459.910156 C 108.8125 495.699219 100.4375 604.164062 100.4375 604.164062 " fill-opacity="1" fill-rule="nonzero"/><path fill="#fb92ff" d="M 365.8125 439.125 C 365.148438 437.414062 364.589844 435.648438 364.085938 433.863281 C 359.398438 417.136719 361.554688 397.191406 368.554688 375.980469 C 367.765625 373.601562 366.898438 371.199219 365.992188 368.789062 C 341.78125 370.230469 322.550781 391.960938 322.550781 418.574219 C 322.550781 433.289062 328.433594 446.523438 337.789062 455.644531 C 342.925781 450.03125 348.328125 445.589844 353.953125 442.722656 C 357.8125 440.753906 361.769531 439.511719 365.8125 439.125 " fill-opacity="1" fill-rule="nonzero"/><path fill="#fb92ff" d="M 427.671875 418.574219 C 427.671875 391.960938 408.4375 370.230469 384.226562 368.789062 C 383.320312 371.199219 382.453125 373.601562 381.671875 375.980469 C 389.417969 399.460938 391.253906 421.410156 384.40625 439.125 C 385.835938 439.265625 393.777344 441.449219 396.273438 442.722656 C 401.890625 445.589844 407.292969 450.03125 412.4375 455.644531 C 421.785156 446.523438 427.671875 433.289062 427.671875 418.574219 " fill-opacity="1" fill-rule="nonzero"/><path fill="#fb92ff" d="M 503.800781 239.804688 C 498.925781 242.617188 493.945312 245.792969 488.917969 249.265625 C 450.613281 275.660156 409.28125 319.671875 386.378906 362.078125 C 390.769531 362.960938 396.097656 364.363281 400.054688 366.1875 C 420.867188 330.457031 460.742188 287.417969 492.359375 265.628906 C 496.707031 262.636719 501.003906 259.894531 505.210938 257.464844 C 565.488281 222.664062 673.703125 274.488281 673.703125 274.488281 C 673.703125 274.488281 664.476562 394.109375 604.199219 428.914062 C 594.988281 434.230469 584.304688 439.191406 572.75 443.617188 C 528.101562 460.707031 470.152344 469.722656 431.273438 460.0625 C 423.5 459.441406 413.339844 460.648438 410.207031 463.101562 C 412.972656 466.59375 415.625 470.402344 418.148438 474.496094 C 463.179688 485.683594 530.304688 475.242188 582.035156 455.449219 C 595.429688 450.320312 607.792969 444.578125 618.46875 438.417969 C 688.289062 398.101562 698.980469 259.527344 698.980469 259.527344 C 698.980469 259.527344 573.625 199.488281 503.800781 239.804688 " fill-opacity="1" fill-rule="nonzero"/><g clip-path="url(#e168796674)"><path fill="#fb92ff" d="M 318.710938 460.0625 C 279.839844 469.722656 221.894531 460.707031 177.246094 443.617188 C 165.679688 439.191406 155 434.230469 145.792969 428.914062 C 85.515625 394.109375 76.289062 274.488281 76.289062 274.488281 C 76.289062 274.488281 184.5 222.664062 244.773438 257.464844 C 248.984375 259.894531 253.285156 262.636719 257.625 265.628906 C 289.25 287.417969 329.125 330.457031 349.933594 366.195312 C 353.894531 364.363281 359.222656 362.960938 363.605469 362.078125 C 340.710938 319.671875 299.382812 275.660156 261.074219 249.265625 C 256.050781 245.792969 251.066406 242.617188 246.191406 239.804688 C 176.371094 199.488281 51.015625 259.527344 51.015625 259.527344 C 51.015625 259.527344 61.703125 398.101562 131.527344 438.410156 C 143.4375 445.289062 157.4375 451.644531 172.632812 457.199219 C 223.671875 475.84375 288.15625 485.351562 331.84375 474.488281 C 334.367188 470.402344 337.023438 466.59375 339.785156 463.101562 C 336.652344 460.648438 326.492188 459.441406 318.710938 460.0625 " fill-opacity="1" fill-rule="nonzero"/></g><g clip-path="url(#43d7265896)"><path fill="#fb92ff" d="M 435.359375 586.574219 C 428.597656 626.152344 375.53125 662.5 375.53125 662.5 C 375.53125 662.5 326.277344 628.757812 316.628906 590.898438 C 315.589844 586.792969 315.003906 582.640625 315.003906 578.46875 C 315.003906 552.816406 324.851562 516.867188 339.996094 492.351562 C 344.269531 485.429688 348.976562 479.429688 353.988281 474.824219 C 357.308594 471.777344 360.773438 469.328125 364.335938 467.648438 C 367.300781 466.261719 370.339844 465.378906 373.433594 465.109375 C 374.128906 465.050781 374.832031 465 375.53125 465 C 375.554688 465 375.5625 465.007812 375.574219 465.007812 C 376.269531 465.007812 376.949219 465.050781 377.636719 465.109375 C 378.734375 465.203125 379.828125 465.378906 380.90625 465.625 C 382.878906 466.070312 384.816406 466.75 386.734375 467.648438 C 390.300781 469.328125 393.757812 471.777344 397.074219 474.824219 C 402.09375 479.429688 406.796875 485.429688 411.074219 492.351562 C 426.21875 516.867188 436.070312 552.816406 436.070312 578.46875 C 436.070312 581.179688 435.824219 583.890625 435.359375 586.574219 Z M 418.148438 478.953125 C 412.957031 470.546875 407.242188 463.257812 401.148438 457.667969 C 397.117188 453.964844 392.925781 451 388.59375 448.960938 C 386.269531 447.871094 383.914062 447.046875 381.519531 446.503906 C 380.203125 446.199219 378.878906 445.988281 377.550781 445.875 C 376.71875 445.800781 375.886719 445.75 375.046875 445.75 C 375.027344 445.75 375.019531 445.742188 374.996094 445.742188 C 374.144531 445.742188 373.289062 445.800781 372.445312 445.875 C 368.691406 446.207031 364.996094 447.269531 361.402344 448.960938 C 357.070312 451 352.875 453.964844 348.839844 457.667969 C 342.75 463.257812 337.039062 470.546875 331.84375 478.953125 C 313.460938 508.71875 301.5 552.363281 301.5 583.507812 C 301.5 588.570312 302.210938 593.609375 303.480469 598.59375 C 315.191406 644.558594 374.996094 685.535156 374.996094 685.535156 C 374.996094 685.535156 439.433594 641.398438 447.632812 593.351562 C 448.195312 590.089844 448.492188 586.800781 448.492188 583.507812 C 448.492188 552.363281 436.53125 508.71875 418.148438 478.953125 " fill-opacity="1" fill-rule="nonzero"/></g></svg>