<svg xmlns="http://www.w3.org/2000/svg" xmlns:xlink="http://www.w3.org/1999/xlink" width="1000" zoomAndPan="magnify" viewBox="0 0 750 749.999995" height="1000" preserveAspectRatio="xMidYMid meet" version="1.0"><defs><clipPath id="92f9036016"><path d="M 11 82.652344 L 729 82.652344 L 729 683 L 11 683 Z M 11 82.652344 " clip-rule="nonzero"/></clipPath><clipPath id="6352d6a9d0"><path d="M 147 82.652344 L 728.707031 82.652344 L 728.707031 569 L 147 569 Z M 147 82.652344 " clip-rule="nonzero"/></clipPath><clipPath id="1ddf660c89"><path d="M 64 130.554688 L 645.5 130.554688 L 645.5 617 L 64 617 Z M 64 130.554688 " clip-rule="nonzero"/></clipPath><clipPath id="5964868d66"><path d="M 4 64 L 747 64 L 747 686.25 L 4 686.25 Z M 4 64 " clip-rule="nonzero"/></clipPath></defs><g clip-path="url(#92f9036016)"><path fill="#633058" d="M 714.953125 82.8125 L 282.472656 332.503906 C 281.367188 331.695312 280.222656 330.953125 279.03125 330.28125 L 29.65625 189.492188 C 27.996094 188.554688 26.421875 187.492188 24.933594 186.300781 C 23.445312 185.113281 22.058594 183.808594 20.78125 182.394531 C 19.5 180.984375 18.339844 179.476562 17.304688 177.878906 C 16.265625 176.277344 15.363281 174.605469 14.59375 172.859375 C 13.824219 171.117188 13.203125 169.320312 12.722656 167.476562 C 12.242188 165.632812 11.914062 163.757812 11.734375 161.863281 C 11.554688 159.964844 11.527344 158.0625 11.65625 156.160156 C 11.78125 154.257812 12.058594 152.378906 12.488281 150.519531 C 12.917969 148.664062 13.492188 146.851562 14.210938 145.085938 C 14.933594 143.320312 15.789062 141.625 16.78125 139.996094 C 17.773438 138.371094 18.890625 136.832031 20.132812 135.382812 C 21.371094 133.9375 22.71875 132.597656 24.175781 131.367188 C 25.632812 130.136719 27.175781 129.027344 28.808594 128.046875 C 30.445312 127.0625 32.144531 126.21875 33.914062 125.507812 C 35.6875 124.800781 37.5 124.234375 39.359375 123.820312 C 41.222656 123.402344 43.101562 123.136719 45.007812 123.023438 Z M 296.363281 356.550781 C 296.507812 357.914062 296.574219 359.277344 296.5625 360.648438 L 293.816406 647.007812 C 293.800781 648.914062 293.933594 650.808594 294.21875 652.691406 C 294.507812 654.578125 294.941406 656.425781 295.527344 658.242188 C 296.109375 660.054688 296.835938 661.8125 297.703125 663.507812 C 298.570312 665.207031 299.566406 666.824219 300.691406 668.363281 C 301.820312 669.898438 303.0625 671.335938 304.421875 672.675781 C 305.777344 674.011719 307.234375 675.234375 308.789062 676.335938 C 310.34375 677.441406 311.976562 678.414062 313.683594 679.253906 C 315.394531 680.097656 317.164062 680.796875 318.984375 681.351562 C 320.808594 681.910156 322.664062 682.316406 324.554688 682.578125 C 326.441406 682.835938 328.339844 682.941406 330.242188 682.894531 C 332.148438 682.847656 334.039062 682.652344 335.914062 682.300781 C 337.785156 681.949219 339.621094 681.453125 341.414062 680.808594 C 343.207031 680.164062 344.9375 679.378906 346.605469 678.457031 C 348.273438 677.53125 349.859375 676.480469 351.355469 675.304688 C 352.855469 674.125 354.25 672.835938 355.542969 671.433594 C 356.832031 670.03125 358.003906 668.535156 359.054688 666.945312 L 728.839844 106.863281 Z M 296.363281 356.550781 " fill-opacity="1" fill-rule="nonzero"/></g><g clip-path="url(#6352d6a9d0)"><path fill="#633058" d="M 717.589844 82.777344 L 367.292969 285.019531 C 366.402344 284.363281 365.472656 283.761719 364.507812 283.21875 L 162.523438 169.183594 C 161.179688 168.425781 159.90625 167.5625 158.699219 166.601562 C 157.492188 165.636719 156.371094 164.582031 155.335938 163.4375 C 154.296875 162.292969 153.359375 161.070312 152.519531 159.777344 C 151.679688 158.480469 150.945312 157.125 150.324219 155.714844 C 149.703125 154.300781 149.195312 152.847656 148.808594 151.351562 C 148.417969 149.859375 148.152344 148.339844 148.007812 146.804688 C 147.863281 145.265625 147.839844 143.726562 147.945312 142.1875 C 148.046875 140.644531 148.269531 139.125 148.617188 137.617188 C 148.964844 136.113281 149.429688 134.648438 150.015625 133.21875 C 150.597656 131.789062 151.292969 130.414062 152.097656 129.09375 C 152.902344 127.777344 153.804688 126.53125 154.808594 125.359375 C 155.816406 124.1875 156.90625 123.101562 158.085938 122.105469 C 159.265625 121.105469 160.515625 120.210938 161.839844 119.414062 C 163.164062 118.617188 164.539062 117.933594 165.972656 117.359375 C 167.40625 116.785156 168.878906 116.328125 170.382812 115.992188 C 171.890625 115.652344 173.414062 115.4375 174.957031 115.34375 Z M 378.546875 304.496094 C 378.664062 305.597656 378.71875 306.707031 378.707031 307.8125 L 376.484375 539.753906 C 376.46875 541.296875 376.578125 542.832031 376.8125 544.359375 C 377.042969 545.886719 377.394531 547.382812 377.871094 548.851562 C 378.34375 550.324219 378.929688 551.746094 379.632812 553.121094 C 380.335938 554.496094 381.140625 555.804688 382.054688 557.050781 C 382.964844 558.296875 383.972656 559.460938 385.074219 560.542969 C 386.171875 561.628906 387.351562 562.617188 388.609375 563.511719 C 389.871094 564.40625 391.191406 565.191406 392.578125 565.875 C 393.960938 566.554688 395.394531 567.121094 396.871094 567.574219 C 398.347656 568.023438 399.851562 568.355469 401.378906 568.5625 C 402.910156 568.773438 404.445312 568.859375 405.988281 568.820312 C 407.53125 568.785156 409.0625 568.625 410.582031 568.339844 C 412.097656 568.058594 413.582031 567.652344 415.035156 567.132812 C 416.488281 566.609375 417.890625 565.972656 419.242188 565.226562 C 420.59375 564.476562 421.875 563.628906 423.089844 562.671875 C 424.304688 561.71875 425.433594 560.675781 426.480469 559.539062 C 427.523438 558.402344 428.472656 557.191406 429.324219 555.902344 L 728.835938 102.257812 Z M 378.546875 304.496094 " fill-opacity="1" fill-rule="nonzero"/></g><g clip-path="url(#1ddf660c89)"><path fill="#633058" d="M 634.382812 130.679688 L 284.085938 332.917969 C 283.191406 332.265625 282.265625 331.664062 281.300781 331.117188 L 79.316406 217.085938 C 77.972656 216.328125 76.695312 215.464844 75.488281 214.5 C 74.285156 213.535156 73.164062 212.480469 72.125 211.335938 C 71.089844 210.191406 70.152344 208.972656 69.3125 207.675781 C 68.46875 206.382812 67.738281 205.027344 67.117188 203.613281 C 66.492188 202.199219 65.988281 200.746094 65.597656 199.253906 C 65.210938 197.757812 64.945312 196.242188 64.796875 194.703125 C 64.652344 193.167969 64.632812 191.628906 64.734375 190.085938 C 64.835938 188.546875 65.0625 187.023438 65.410156 185.519531 C 65.757812 184.015625 66.222656 182.546875 66.804688 181.117188 C 67.390625 179.6875 68.082031 178.3125 68.886719 176.996094 C 69.691406 175.675781 70.597656 174.433594 71.601562 173.257812 C 72.605469 172.085938 73.699219 171 74.878906 170.003906 C 76.054688 169.007812 77.308594 168.109375 78.628906 167.316406 C 79.953125 166.519531 81.332031 165.835938 82.765625 165.261719 C 84.199219 164.6875 85.667969 164.230469 87.175781 163.890625 C 88.683594 163.554688 90.207031 163.339844 91.75 163.246094 Z M 295.335938 352.398438 C 295.453125 353.5 295.507812 354.605469 295.5 355.714844 L 293.277344 587.65625 C 293.261719 589.199219 293.371094 590.734375 293.601562 592.257812 C 293.835938 593.785156 294.1875 595.285156 294.660156 596.753906 C 295.132812 598.222656 295.722656 599.644531 296.421875 601.019531 C 297.125 602.394531 297.933594 603.707031 298.84375 604.953125 C 299.757812 606.195312 300.765625 607.363281 301.863281 608.445312 C 302.964844 609.527344 304.144531 610.515625 305.402344 611.410156 C 306.660156 612.304688 307.984375 613.09375 309.367188 613.773438 C 310.753906 614.457031 312.183594 615.023438 313.660156 615.472656 C 315.136719 615.925781 316.640625 616.253906 318.171875 616.464844 C 319.699219 616.675781 321.238281 616.761719 322.78125 616.722656 C 324.324219 616.683594 325.855469 616.523438 327.371094 616.242188 C 328.890625 615.957031 330.375 615.554688 331.828125 615.03125 C 333.28125 614.507812 334.683594 613.875 336.035156 613.125 C 337.382812 612.378906 338.667969 611.527344 339.878906 610.574219 C 341.09375 609.621094 342.226562 608.574219 343.269531 607.441406 C 344.316406 606.304688 345.265625 605.09375 346.117188 603.804688 L 645.628906 150.15625 Z M 295.335938 352.398438 " fill-opacity="1" fill-rule="nonzero"/></g><g clip-path="url(#5964868d66)"><path fill="#fff163" d="M 742.417969 81.15625 C 741.675781 79.839844 740.847656 78.578125 739.925781 77.378906 C 739.007812 76.175781 738.007812 75.046875 736.929688 73.988281 C 735.851562 72.929688 734.703125 71.953125 733.484375 71.054688 C 732.265625 70.15625 730.992188 69.351562 729.660156 68.636719 C 728.328125 67.917969 726.953125 67.300781 725.53125 66.777344 C 724.113281 66.257812 722.664062 65.835938 721.1875 65.519531 C 719.707031 65.203125 718.214844 64.992188 716.703125 64.886719 C 715.195312 64.78125 713.6875 64.785156 712.179688 64.890625 L 61.109375 103.996094 C 59.507812 104.09375 57.914062 104.253906 56.324219 104.480469 C 54.738281 104.707031 53.160156 104.996094 51.59375 105.347656 C 50.03125 105.699219 48.480469 106.113281 46.949219 106.589844 C 45.417969 107.066406 43.910156 107.601562 42.421875 108.199219 C 40.929688 108.796875 39.46875 109.453125 38.03125 110.164062 C 36.597656 110.878906 35.191406 111.652344 33.816406 112.476562 C 32.445312 113.304688 31.105469 114.1875 29.800781 115.121094 C 28.496094 116.054688 27.234375 117.042969 26.007812 118.078125 C 24.785156 119.113281 23.605469 120.195312 22.464844 121.328125 C 21.328125 122.457031 20.238281 123.632812 19.195312 124.851562 C 18.152344 126.070312 17.160156 127.328125 16.214844 128.625 C 15.273438 129.921875 14.386719 131.257812 13.550781 132.625 C 12.714844 133.996094 11.9375 135.394531 11.210938 136.828125 C 10.488281 138.261719 9.824219 139.71875 9.21875 141.203125 C 8.613281 142.6875 8.066406 144.195312 7.582031 145.722656 C 7.097656 147.253906 6.675781 148.800781 6.3125 150.363281 C 5.953125 151.925781 5.65625 153.5 5.421875 155.085938 C 5.183594 156.671875 5.015625 158.265625 4.90625 159.867188 C 4.800781 161.46875 4.757812 163.070312 4.78125 164.671875 C 4.800781 166.277344 4.886719 167.878906 5.039062 169.472656 C 5.1875 171.070312 5.402344 172.660156 5.679688 174.238281 C 5.957031 175.820312 6.296875 177.386719 6.699219 178.9375 C 7.101562 180.488281 7.566406 182.023438 8.09375 183.539062 C 8.621094 185.054688 9.207031 186.546875 9.851562 188.015625 C 10.5 189.480469 11.203125 190.921875 11.964844 192.332031 C 12.726562 193.746094 13.542969 195.125 14.414062 196.46875 C 15.285156 197.816406 16.210938 199.125 17.1875 200.398438 C 18.164062 201.667969 19.191406 202.902344 20.265625 204.089844 C 21.34375 205.28125 22.464844 206.425781 23.632812 207.523438 C 24.800781 208.625 26.011719 209.675781 27.261719 210.675781 C 28.515625 211.679688 29.804688 212.628906 31.132812 213.53125 C 32.460938 214.429688 33.824219 215.273438 35.21875 216.0625 L 271.378906 349.34375 C 271.886719 349.605469 272.347656 349.933594 272.761719 350.328125 C 273.175781 350.722656 273.523438 351.167969 273.8125 351.664062 C 274.097656 352.15625 274.308594 352.683594 274.445312 353.238281 C 274.582031 353.792969 274.636719 354.355469 274.609375 354.929688 L 271.992188 626.105469 C 271.96875 627.714844 272.011719 629.320312 272.117188 630.921875 C 272.222656 632.523438 272.394531 634.121094 272.628906 635.710938 C 272.863281 637.300781 273.164062 638.878906 273.527344 640.441406 C 273.890625 642.007812 274.316406 643.554688 274.804688 645.085938 C 275.292969 646.617188 275.839844 648.125 276.449219 649.613281 C 277.0625 651.097656 277.730469 652.558594 278.460938 653.988281 C 279.1875 655.421875 279.972656 656.824219 280.8125 658.191406 C 281.65625 659.558594 282.550781 660.890625 283.5 662.1875 C 284.449219 663.484375 285.453125 664.738281 286.503906 665.953125 C 287.554688 667.171875 288.652344 668.339844 289.796875 669.46875 C 290.945312 670.59375 292.132812 671.671875 293.367188 672.703125 C 294.601562 673.730469 295.871094 674.710938 297.183594 675.636719 C 298.496094 676.566406 299.84375 677.4375 301.226562 678.253906 C 302.609375 679.074219 304.023438 679.832031 305.46875 680.539062 C 306.914062 681.242188 308.382812 681.886719 309.878906 682.46875 C 311.378906 683.054688 312.894531 683.578125 314.433594 684.039062 C 320.226562 685.816406 326.148438 686.707031 332.207031 686.710938 C 334.671875 686.710938 337.125 686.558594 339.566406 686.253906 C 342.011719 685.945312 344.425781 685.492188 346.816406 684.886719 C 349.203125 684.28125 351.542969 683.527344 353.835938 682.632812 C 356.132812 681.734375 358.363281 680.699219 360.527344 679.527344 C 362.691406 678.355469 364.777344 677.050781 366.78125 675.621094 C 368.785156 674.1875 370.695312 672.636719 372.503906 670.96875 C 374.316406 669.300781 376.019531 667.523438 377.609375 665.644531 C 379.199219 663.765625 380.667969 661.792969 382.015625 659.730469 L 741.398438 115.441406 C 742.242188 114.191406 742.996094 112.886719 743.65625 111.527344 C 744.316406 110.167969 744.878906 108.769531 745.34375 107.332031 C 745.804688 105.894531 746.167969 104.433594 746.421875 102.945312 C 746.679688 101.457031 746.832031 99.957031 746.875 98.445312 C 746.921875 96.9375 746.859375 95.433594 746.691406 93.929688 C 746.523438 92.429688 746.25 90.949219 745.875 89.484375 C 745.496094 88.023438 745.019531 86.59375 744.441406 85.199219 C 743.863281 83.804688 743.1875 82.457031 742.417969 81.15625 Z M 48.148438 193.15625 C 46.574219 192.269531 45.085938 191.261719 43.675781 190.136719 C 42.265625 189.007812 40.953125 187.773438 39.742188 186.4375 C 38.53125 185.097656 37.433594 183.671875 36.449219 182.15625 C 35.46875 180.640625 34.613281 179.058594 33.886719 177.40625 C 33.160156 175.753906 32.566406 174.054688 32.113281 172.308594 C 31.660156 170.558594 31.347656 168.789062 31.175781 166.992188 C 31.007812 165.191406 30.984375 163.394531 31.105469 161.59375 C 31.222656 159.789062 31.488281 158.011719 31.894531 156.25 C 32.300781 154.492188 32.84375 152.777344 33.527344 151.105469 C 34.207031 149.433594 35.019531 147.828125 35.960938 146.285156 C 36.902344 144.746094 37.957031 143.289062 39.132812 141.917969 C 40.308594 140.546875 41.585938 139.28125 42.964844 138.113281 C 44.339844 136.949219 45.804688 135.898438 47.351562 134.96875 C 48.898438 134.039062 50.511719 133.238281 52.1875 132.566406 C 53.863281 131.894531 55.582031 131.363281 57.34375 130.96875 C 59.105469 130.574219 60.886719 130.320312 62.6875 130.214844 L 697.113281 92.136719 L 287.5625 328.59375 C 286.519531 327.824219 285.433594 327.121094 284.304688 326.484375 Z M 360.066406 645.300781 C 359.074219 646.808594 357.964844 648.226562 356.738281 649.554688 C 355.515625 650.882812 354.195312 652.105469 352.777344 653.21875 C 351.355469 654.335938 349.855469 655.332031 348.277344 656.203125 C 346.695312 657.078125 345.058594 657.820312 343.355469 658.433594 C 341.65625 659.042969 339.921875 659.515625 338.144531 659.847656 C 336.371094 660.175781 334.582031 660.363281 332.773438 660.40625 C 330.96875 660.453125 329.171875 660.351562 327.382812 660.105469 C 325.59375 659.859375 323.835938 659.472656 322.109375 658.945312 C 320.382812 658.414062 318.710938 657.75 317.089844 656.953125 C 315.46875 656.15625 313.925781 655.234375 312.453125 654.1875 C 310.980469 653.140625 309.601562 651.984375 308.316406 650.71875 C 307.03125 649.449219 305.855469 648.085938 304.789062 646.628906 C 303.722656 645.171875 302.777344 643.640625 301.957031 642.03125 C 301.136719 640.421875 300.453125 638.757812 299.902344 637.039062 C 299.347656 635.320312 298.9375 633.566406 298.667969 631.78125 C 298.394531 629.996094 298.269531 628.199219 298.289062 626.394531 L 300.90625 355.214844 C 300.914062 353.917969 300.851562 352.625 300.714844 351.335938 L 710.257812 114.914062 Z M 360.066406 645.300781 " fill-opacity="1" fill-rule="nonzero"/></g></svg>